<?xml version="1.0" encoding="utf-8"?>
<!-- Generator: Adobe Illustrator 16.0.4, SVG Export Plug-In . SVG Version: 6.00 Build 0)  -->
<!DOCTYPE svg PUBLIC "-//W3C//DTD SVG 1.1//EN" "http://www.w3.org/Graphics/SVG/1.1/DTD/svg11.dtd">
<svg version="1.1" id="Layer_1" xmlns="http://www.w3.org/2000/svg" xmlns:xlink="http://www.w3.org/1999/xlink" x="0px" y="0px"
	 width="100px" height="100px" viewBox="0 0 100 100" style="enable-background:new 0 0 100 100;" xml:space="preserve">
<style type="text/css">
<![CDATA[
	.st0{fill:url(#SVGID_1_);}
	.st1{fill:url(#SVGID_2_);}
	.st2{fill:url(#SVGID_3_);}
]]>
</style>
<g>
	<linearGradient id="SVGID_1_" gradientUnits="userSpaceOnUse" x1="23" y1="93.5" x2="78" y2="93.5">
		<stop  offset="0" style="stop-color:#FF6B2A"/>
		<stop  offset="1" style="stop-color:#9300E9"/>
	</linearGradient>
	<rect x="23" y="90" class="st0" width="55" height="7"/>
	<linearGradient id="SVGID_2_" gradientUnits="userSpaceOnUse" x1="43.5015" y1="7.6514" x2="57.0469" y2="7.6514">
		<stop  offset="0" style="stop-color:#FF6B2A"/>
		<stop  offset="1" style="stop-color:#9300E9"/>
	</linearGradient>
	<polygon class="st1" points="50.292,11.477 52.6,13.153 57.047,7.033 50.29,2.124 43.501,7.06 47.951,13.179 	"/>
	<linearGradient id="SVGID_3_" gradientUnits="userSpaceOnUse" x1="15.2622" y1="51.167" x2="85.0312" y2="51.167">
		<stop  offset="0" style="stop-color:#FF6B2A"/>
		<stop  offset="1" style="stop-color:#9300E9"/>
	</linearGradient>
	<path class="st2" d="M30,53.021v11.582l6.108,3.465l-9.251,12.811l2.407,1.729l2.394,1.716L41.335,71h0.002l8.937,5.171
		l8.968-5.169l9.685,13.332l2.38-1.729l2.379-1.728L64.199,68.05L70,64.604V53.021v-2.749l15.031-4.83l-0.824-2.798l-1.034-2.798
		L70,44.085v-2.647l-9.865-5.575L53.198,32H53V18h-2.703H48v13h-0.621l-7.229,4.376L30,41.438v2.633l-12.892-4.224l-0.856,2.798
		l-0.99,2.798L30,50.259V53.021z M65,53.021v8.672l-3.761,2.254l-6.4-8.709L65,51.912V53.021z M65,44.35v1.375l-12,3.916V37.438
		l4.482,2.578L65,44.35z M50.297,58.697L50.297,58.697l5.965,8.209l-5.986,3.455l-5.953-3.436l-0.002-0.002L50.297,58.697z
		 M35,44.35l7.96-4.334L48,37.367v12.273L35,45.71V44.35z M35,53.021v-1.125l10.408,3.34l-6.406,8.729L35,61.693V53.021z"/>
</g>
</svg>
