<?xml version="1.0" encoding="utf-8"?>
<!-- Generator: Adobe Illustrator 16.0.4, SVG Export Plug-In . SVG Version: 6.00 Build 0)  -->
<!DOCTYPE svg PUBLIC "-//W3C//DTD SVG 1.1//EN" "http://www.w3.org/Graphics/SVG/1.1/DTD/svg11.dtd">
<svg version="1.1" id="Layer_1" xmlns="http://www.w3.org/2000/svg" xmlns:xlink="http://www.w3.org/1999/xlink" x="0px" y="0px"
	 width="20px" height="20px" viewBox="0 0 20 20" style="enable-background:new 0 0 20 20;" xml:space="preserve">
<style type="text/css">
<![CDATA[
	.st0{fill:none;stroke:#1D1D1B;stroke-width:1.2815;stroke-miterlimit:10;}
	.st1{fill:none;stroke:#1D1D1B;stroke-width:0.9967;stroke-miterlimit:10;}
	.st2{fill:none;stroke:#1D1D1B;stroke-width:0.8543;stroke-miterlimit:10;}
	.st3{fill:#FCEA0D;}
	.st4{fill:#FFEC00;}
	.st5{fill:#FFFFFF;}
	.st6{fill:none;}
]]>
</style>
<g>
	<polygon class="st4" points="3.82,19.511 0,7.755 10,0.489 20,7.755 16.181,19.511 	"/>
	<polygon class="st5" points="3.944,19.318 0.202,7.8 10,0.681 19.798,7.8 16.056,19.318 	"/>
	<polygon class="st3" points="4.093,19.127 0.427,7.846 10.023,0.874 19.62,7.846 15.954,19.127 	"/>
	<polyline class="st5" points="9.637,3.487 10.023,3.207 10.408,3.485 	"/>
	<line class="st5" x1="14.514" y1="17.262" x2="5.534" y2="17.262"/>
	<line class="st1" x1="10.023" y1="10.936" x2="10.023" y2="4.881"/>
	<line class="st1" x1="10.023" y1="10.936" x2="15.781" y2="9.064"/>
	<line class="st1" x1="10.023" y1="10.936" x2="4.266" y2="9.064"/>
	<line class="st1" x1="10.023" y1="10.936" x2="6.465" y2="15.833"/>
	<line class="st1" x1="10.023" y1="10.936" x2="13.582" y2="15.833"/>
	<polygon class="st6" points="11.77,11.873 10.021,12.882 8.274,11.873 8.274,9.855 10.021,8.846 11.77,9.855 	"/>
	<line class="st0" x1="14.767" y1="17.596" x2="5.277" y2="17.596"/>
	<polyline class="st0" points="9.249,3.555 10.022,2.993 10.79,3.551 	"/>
	<polygon class="st2" points="12.99,12.538 10.02,14.252 7.048,12.538 7.048,9.107 10.02,7.392 12.99,9.107 	"/>
</g>
</svg>
